<?xml version="1.0" encoding="UTF-8" standalone="no"?>
<!-- Created with Inkscape (http://www.inkscape.org/) -->

<svg
   xmlns:dc="http://purl.org/dc/elements/1.1/"
   xmlns:cc="http://creativecommons.org/ns#"
   xmlns:rdf="http://www.w3.org/1999/02/22-rdf-syntax-ns#"
   xmlns:svg="http://www.w3.org/2000/svg"
   xmlns="http://www.w3.org/2000/svg"
   xmlns:sodipodi="http://sodipodi.sourceforge.net/DTD/sodipodi-0.dtd"
   xmlns:inkscape="http://www.inkscape.org/namespaces/inkscape"
   width="128"
   height="128"
   id="svg2"
   version="1.1"
   inkscape:version="0.47 r22583"
   sodipodi:docname="icon.svg">
  <defs
     id="defs4">
    <inkscape:perspective
       sodipodi:type="inkscape:persp3d"
       inkscape:vp_x="0 : 526.18109 : 1"
       inkscape:vp_y="0 : 1000 : 0"
       inkscape:vp_z="744.09448 : 526.18109 : 1"
       inkscape:persp3d-origin="372.04724 : 350.78739 : 1"
       id="perspective10" />
    <filter
       inkscape:collect="always"
       id="filter3710">
      <feGaussianBlur
         inkscape:collect="always"
         stdDeviation="2.5051189"
         id="feGaussianBlur3712" />
    </filter>
  </defs>
  <sodipodi:namedview
     id="base"
     pagecolor="#ffffff"
     bordercolor="#666666"
     borderopacity="1.0"
     inkscape:pageopacity="0.0"
     inkscape:pageshadow="2"
     inkscape:zoom="4.2421875"
     inkscape:cx="38.48708"
     inkscape:cy="63.528545"
     inkscape:document-units="px"
     inkscape:current-layer="layer1"
     showgrid="false"
     inkscape:window-width="1356"
     inkscape:window-height="883"
     inkscape:window-x="0"
     inkscape:window-y="25"
     inkscape:window-maximized="0" />
  <metadata
     id="metadata7">
    <rdf:RDF>
      <cc:Work
         rdf:about="">
        <dc:format>image/svg+xml</dc:format>
        <dc:type
           rdf:resource="http://purl.org/dc/dcmitype/StillImage" />
        <dc:title />
      </cc:Work>
    </rdf:RDF>
  </metadata>
  <g
     inkscape:label="Layer 1"
     inkscape:groupmode="layer"
     id="layer1"
     transform="translate(0,-924.36218)">
    <path
       sodipodi:nodetypes="ccccccccccccccc"
       d="m 125.96853,983.61012 c 4.4498,5.22655 3.70792,9.65439 0,13.62591 l -83.518806,0 18.755662,18.75567 c 1.829835,7.1629 -2.689652,9.3371 -9.618289,9.6183 l -31.580046,-31.58006 0,30.93886 -13.625908,0 0,-68.9311 13.625908,0 0,30.77852 31.580046,-31.58005 c 6.756445,0.72085 9.124057,4.51389 9.618289,9.61829 l -18.755662,18.75566 83.518806,0"
       id="path2815"
       style="font-size:48px;font-style:normal;font-variant:normal;font-weight:normal;font-stretch:normal;text-align:start;line-height:125%;writing-mode:lr-tb;text-anchor:start;opacity:0.69918698999999995;fill:#000000;fill-opacity:1;stroke:none;font-family:Sans;filter:url(#filter3710)"
       transform="matrix(0.98749154,0,0,1,-1.9781289,2)" />
    <path
       style="font-size:48px;font-style:normal;font-variant:normal;font-weight:normal;font-stretch:normal;text-align:start;line-height:125%;writing-mode:lr-tb;text-anchor:start;fill:#000000;fill-opacity:1;stroke:none;font-family:Sans"
       id="path2846"
       d="m 120.46476,977.61012 c 4.39414,5.22655 3.66154,9.65439 0,13.62591 l -82.474112,0 18.521058,18.75567 c 1.806947,7.1629 -2.656009,9.3371 -9.497979,9.6183 l -31.185028,-31.58006 0,30.93886 -13.4554693,0 0,-68.9311 13.4554693,0 0,30.77852 31.185028,-31.58005 c 6.671932,0.72085 9.009929,4.51389 9.497979,9.61829 l -18.521058,18.75566 82.474112,0"
       sodipodi:nodetypes="ccccccccccccccc" />
  </g>
</svg>
